<?xml version="1.0" encoding="UTF-8" standalone="no"?>
<svg
   xmlns:dc="http://purl.org/dc/elements/1.1/"
   xmlns:cc="http://creativecommons.org/ns#"
   xmlns:rdf="http://www.w3.org/1999/02/22-rdf-syntax-ns#"
   xmlns:svg="http://www.w3.org/2000/svg"
   xmlns="http://www.w3.org/2000/svg"
   width="210mm"
   height="297mm"
   viewBox="-146 -52 793.70079 1122.5197"
   version="1.1"
   id="svg4563">
  <title
     id="title9583">Lagrange keyboard wiring diagram</title>
  <metadata
     id="metadata4569">
    <rdf:RDF>
      <cc:Work
         rdf:about="">
        <dc:format>image/svg+xml</dc:format>
        <dc:type
           rdf:resource="http://purl.org/dc/dcmitype/StillImage" />
        <dc:title>Lagrange keyboard wiring diagram</dc:title>
        <cc:license
           rdf:resource="" />
      </cc:Work>
    </rdf:RDF>
  </metadata>
  <defs
     id="defs4567" />
  <g
     id="layer1"
     style="display:inline;opacity:0.998"
     transform="matrix(-1,0,0,1,501.70079,966.51969)">
    <path
       style="display:inline;fill:#d3d3d3;stroke:#000000;stroke-width:2.88549"
       d="m 216.0031,-40.16718 -2.01061,-4.077203 8.34023,-4.148186 -35.60526,-72.201411 -2.54732,1.1467 -5.88814,2.80816 -2.10583,-4.26996 -64.29573,31.975896 1.05032,11.641814 7.24259,14.690628 -1.27539,0.633077 15.3162,31.054842 1.28116,-0.612302 3.97621,8.063802 12.22699,15.270033 z"
       id="path2121" />
    <path
       style="display:inline;fill:#d3d3d3;stroke:#000000;stroke-width:2.88549"
       d="m -30.295169,-68.801659 -0.300091,-4.553887 7.987047,-5.508985 10.647473,-10.22446 -3.145188,-47.563909 -25.536623,-21.12239 2.406502,-3.40777 2.192976,-0.92105 11.588144,-6.6326 30.48813,-43.1491 -48.153125,-60.25835 -8.056299,1.62742 -9.822222,4.1303 -2.850868,-3.56359 -34.019977,48.15428 -6.47505,14.25492 -6.55584,9.27917 20.71208,25.91809 8.5122,-3.57975 0.55979,0.70002 -9.91456,6.83343 -3.13941,-2.59637 -13.83883,37.64358 0.97529,14.74141 -11.18417,7.7112 1.512,22.831181 22.83003,18.885559 12.54612,-8.650135 15.235413,12.603838 z"
       id="path2087" />
    <path
       style="display:inline;fill:#d3d3d3;stroke:#000000;stroke-width:2.88549"
       d="m 171.67441,-281.23346 -0.60999,-4.40269 0.37107,-0.0519 1.83922,-0.41782 -11.04683,-79.7389 -2.25357,0.1564 -0.65328,-4.71605 -78.743975,11.04682 12.349915,89.171 z"
       id="path2063" />
    <path
       style="display:inline;fill:#d3d3d3;stroke:#000000;stroke-width:2.88549"
       d="m 74.148174,-250.76091 -0.565557,-1.28694 8.529521,-4.32131 -32.340618,-73.25866 -3.283692,-0.20313 -6.596239,1.47852 -1.910197,-4.33228 -63.873297,32.34466 1.858258,15.43047 2.533464,5.73751 -1.454289,0.7358 13.908081,31.50902 1.621648,-0.36242 7.502285,16.99614 10.203107,11.87727 z"
       id="path2071" />
    <path
       style="display:inline;fill:#d3d3d3;stroke:#000000;stroke-width:2.88549"
       d="m 39.383742,-47.00003 11.074526,2.022154 28.393262,-13.999263 -0.744458,-11.211875 0.06348,-0.170822 3.722287,-13.306167 -2.625799,-39.636877 0.184671,0.22391 27.654579,-13.75284 0.37511,-1.35099 43.39033,-21.57888 -2.75796,-3.3841 2.34937,-8.37659 -0.99145,-6.71455 -46.64171,-57.21819 -57.61177,28.65238 -5.690195,10.03863 -0.802167,2.84972 -4.305157,2.14277 11.351534,23.37481 14.450554,17.7302 -0.831022,2.97783 12.378769,15.1852 -70.452223,-12.86295 -4.08586,7.78795 -3.901188,10.54705 -4.576393,-0.83563 1.638961,36.962597 2.343021,35.387699 8.835383,1.612991 0.732915,11.045094 33.298602,6.080313 z"
       id="path2107" />
    <path
       style="display:inline;fill:#d3d3d3;stroke:#000000;stroke-width:2.88549"
       d="m 246.28521,-144.55396 3.04362,0.67232 3.89311,-1.81613 27.50049,-72.54767 -2.122,-0.4686 -0.57132,-3.68593 -5.20659,-8.86712 -68.40987,-15.10614 -2.72852,7.11447 -24.59134,64.87399 1.23846,7.99109 -1.45429,3.83655 21.55521,7.43592 12.97376,2.86472 0.64231,4.14472 32.83693,7.25125 z"
       id="path2099" />
    <path
       style="display:inline;fill:#d3d3d3;stroke:#000000;stroke-width:2.88549"
       d="m 610.09638,-218.52648 5.82466,-74.24261 h -0.96318 l -0.70579,-4.23418 -5.51764,-8.16075 h -71.66356 l -2.79604,8.16075 -5.20832,66.39003 1.3608,8.16018 -0.30817,3.92658 17.42665,11.03701 h 53.31816 z"
       id="path2079" />
    <path
       style="display:inline;fill:#d3d3d3;stroke:#000000;stroke-width:2.88549"
       d="m 614.26015,-316.06195 0.66078,-3.61322 h 1.02723 l -5.46051,-76.33113 -8.71592,-2.98706 h -6.50102 l -0.2949,-4.12453 h -34.39855 l -0.75484,4.12453 h -11.36827 l -17.94316,2.98706 0.28855,4.03681 -1.39889,7.65002 4.88226,68.25752 2.75738,7.64944 h 71.66413 z"
       id="path2055" />
    <path
       style="display:inline;fill:#d3d3d3;stroke:#000000;stroke-width:2.88549"
       d="m 471.94585,-316.06195 1.29039,-3.61322 h 2.006 l -10.66306,-76.33113 -4.98036,-9.51116 h -52.31401 l -21.17664,9.51116 0.56383,4.03681 -2.73257,7.65002 9.53541,68.25752 1.34579,7.64944 h 70.3143 z"
       id="path2047" />
    <path
       style="display:inline;fill:#d3d3d3;stroke:#000000;stroke-width:2.88549"
       d="m 368.39989,-301.99113 2.18086,-6.67069 h 2.17566 l -8.74708,-38.48325 -6.37579,-20.46566 0.38781,-1.18478 -7.71927,-24.77832 h -16.3446 l 7.59982,-5.85178 1.29962,-1.95752 h 3.50876 l -12.44513,-81.14471 -0.88065,-5.44089 h -50.86319 l -24.55093,5.44089 0.65789,4.29131 -4.15049,6.24882 -0.18468,6.24883 11.1282,72.5621 h 52.27996 l -1.00762,3.08228 h -16.58293 l -23.37481,17.00884 1.06128,3.40719 -3.29523,10.0773 0.67001,10.07787 17.94777,57.60947 h 68.36428 z"
       id="path2011" />
    <path
       style="display:inline;fill:#d3d3d3;stroke:#000000;stroke-width:2.88549"
       d="m 249.1003,-354.41363 2.75911,-5.75368 h 3.00322 l -4.0622,-31.72774 -8.0713,-23.04355 1.81324,-3.78058 -9.21973,-26.32263 h -31.58462 l -3.60629,7.52075 h -14.26761 l -28.40654,8.91503 1.26789,3.61956 -4.49502,9.37324 -0.6781,9.37324 21.43576,61.20017 h 65.80081 z"
       id="path2039" />
    <path
       style="display:inline;fill:#d3d3d3;stroke:#000000;stroke-width:2.88549"
       d="m 217.25887,-456.88907 1.14612,-1.16862 h 5.06173 l -0.47091,-24.08811 -3.90465,-22.8029 0.89854,-0.91528 -5.4709,-31.94992 h -1.34752 l -3.92774,-3.31313 h -73.43236 l 0.75023,4.39288 -5.45358,5.5615 -1.63896,5.5615 12.71925,74.28358 h 65.7985 z"
       id="path1987" />
    <path
       style="display:inline;fill:#d3d3d3;stroke:#000000;stroke-width:2.88549"
       d="m 33.993639,-384.49433 2.787387,-2.75507 h 5.493981 l 1.206136,-33.72219 -4.183966,-13.78632 4.155111,-4.10663 16.112599,61.30117 h 63.284653 l 9.7472,-6.93096 2.41228,-2.75507 h 4.75529 l -1.05609,-33.72219 -3.96467,-15.09402 2.8047,-3.20117 -7.98705,-30.36925 h -3.64726 l -1.04455,-3.97505 H 77.783897 l -29.403185,7.40244 1.096488,4.17589 -6.07108,6.93038 -2.319937,6.69954 -6.446194,-21.2332 h -5.932575 l -1.206137,-3.97505 h -44.673219 l -31.532679,7.40244 1.269617,4.17589 -7.01175,6.93038 -3.531845,6.93038 21.43345,70.60862 h 60.047131 z"
       id="path2025" />
    <path
       style="display:inline;fill:#d3d3d3;stroke:#000000;stroke-width:2.88549"
       d="M 96.101013,-500.15878 H 113.3505 l 3.6588,-24.5394 -0.9349,-11.57949 2.25646,-0.79293 -2.7643,-34.14376 h -2.31994 l -1.02724,-12.66628 -6.05376,-5.05187 H 35.540264 l 0.380885,4.69476 -6.827079,2.39923 -3.156731,2.39923 6.42311,79.38438 h 63.284656 z"
       id="path1971" />
    <path
       style="display:inline;fill:#d3d3d3;stroke:#000000;stroke-width:2.88549"
       d="m -7.424743,-500.15878 h 19.200078 l 6.648178,-24.5394 -1.033007,-11.07106 4.276302,-1.30136 -3.191356,-34.14376 h -4.397493 l -1.183053,-12.66628 -9.418252,-5.05187 H -63.53029 l 0.438595,4.69476 -7.883169,2.39923 -4.403266,2.39923 7.421492,79.38438 h 60.041361 z"
       id="path1979" />
    <path
       style="display:inline;fill:#d3d3d3;stroke:#000000;stroke-width:2.88549"
       d="m 13.598967,-637.51345 0.473221,-5.08187 h 4.403264 l 3.185585,-34.14475 -4.276302,-1.3002 1.742838,-18.65703 -7.358009,-16.94766 H -7.447827 l -0.473221,-0.0998 h -60.047131 l -7.415721,79.38601 4.403265,2.39738 7.88894,2.39733 -0.438595,4.69493 H 3.476654 Z"
       id="path1931" />
    <path
       style="display:inline;fill:#d3d3d3;stroke:#000000;stroke-width:2.88549"
       d="m 112.83111,-637.51345 0.41551,-5.08187 h 2.31416 l 2.76431,-34.14475 -2.25646,-0.79178 1.5524,-19.16545 -4.2763,-16.94766 H 96.077929 l -0.438595,-0.0998 H 32.354678 l -6.42311,79.38601 3.162502,2.39738 6.827079,2.39733 -0.380885,4.69493 h 70.625356 z"
       id="path1923" />
    <path
       style="display:inline;fill:#d3d3d3;stroke:#000000;stroke-width:2.88549"
       d="m 207.86312,-588.84376 -0.6325,-18.26265 0.33126,-0.0683 -1.1946,-34.50299 h -0.33414 l -0.24122,-6.97107 -3.02342,-15.77246 h -73.43237 l 0.16159,4.74416 -5.89218,1.21468 -2.07178,1.21473 2.77584,80.21933 h 8.05053 l 0.0808,2.31475 h 73.43409 z"
       id="path1939" />
    <path
       style="display:inline;fill:#d3d3d3;stroke:#000000;stroke-width:2.88549"
       d="m 327.30469,-605.0225 h -76.29477 l 0.18525,4.72536 -4.57005,1.76436 -0.6048,1.76437 3.1423,79.90088 h 5.31393 l 0.0467,1.19691 h 76.29535 z"
       id="path1963" />
    <path
       style="display:inline;fill:#d3d3d3;stroke:#000000;stroke-width:2.88549"
       d="m 464.16713,-652.01981 h -5.02249 l -5.5563,-2.89484 h -70.31488 l -0.96606,3.74624 -4.66931,77.74375 3.1123,3.74635 -0.27643,4.59775 h 78.47101 z"
       id="path1955" />
    <path
       style="display:inline;fill:#d3d3d3;stroke:#000000;stroke-width:2.88549"
       d="m 458.41634,-523.82099 h -78.47101 l 0.15697,4.70913 -3.18731,2.12891 2.6535,79.62406 0.89046,2.12892 h 2.43882 l 0.015,0.45129 h 78.47101 z"
       id="path1995" />
    <path
       style="display:inline;fill:#d3d3d3;stroke:#000000;stroke-width:2.88549"
       d="m 607.33208,-523.82099 h -79.97667 l 0.0802,4.70913 -1.63261,2.12891 1.35907,79.62406 1.69263,1.42774 0.0196,1.15247 h 79.97724 z"
       id="path2003" />
    <path
       style="display:inline;fill:#d3d3d3;stroke:#000000;stroke-width:2.88549"
       d="m 610.27701,-652.01981 h -3.04246 l -4.44309,-2.89484 h -71.66413 l -2.56232,3.74624 -2.39149,77.74375 1.59394,3.74635 -0.14139,4.59775 h 79.97667 z"
       id="path1947" />
    <path
       style="display:inline;fill:#d3d3d3;stroke:#000000;stroke-width:2.88549"
       d="m 596.82484,-675.30886 h 6.25056 l 9.33399,-13.59356 6.42253,-70.37316 h -0.87315 l -0.75657,-5.27642 -5.44608,-8.99812 h -71.66413 l -2.86645,8.99812 -5.74329,62.92974 1.28981,8.99813 -0.33933,3.72171 17.32451,13.59356 h 12.49419 l 0.10676,0.74561 h 34.39855 z"
       id="path1899" />
    <path
       style="display:inline;fill:#d3d3d3;stroke:#000000;stroke-width:2.88549"
       d="m 460.04088,-675.30886 h 3.01476 l 5.27642,-13.59356 12.54266,-70.37316 h -1.70533 l -1.47737,-5.27642 -6.59739,-8.99812 h -70.31488 l -11.21533,62.92974 -1.55932,8.99812 2.51903,8.99813 -0.66309,3.72171 20.88059,13.59356 h 15.20714 l 0.20833,0.74561 h 33.75104 z"
       id="path1907" />
    <path
       style="display:inline;fill:#d3d3d3;stroke:#000000;stroke-width:2.88549"
       d="m 333.53216,-727.71694 h -9.94514 l -3.3466,-1.14669 h -68.36428 l -5.17427,78.85594 0.54536,2.90528 4.51003,2.90529 -0.30586,4.66354 h 76.29477 z"
       id="path1915" />
    <path
       style="display:inline;fill:#d3d3d3;stroke:#000000;stroke-width:2.88549"
       d="m 346.06617,-803.42364 5.8841,-34.31314 h -3.01534 l -1.72784,-3.15789 -7.94203,-7.27029 H 270.9002 l -12.94721,69.53752 0.0121,7.26972 3.97737,7.27029 -0.76581,4.1124 24.37376,8.39275 h 50.86319 z"
       id="path1870" />
    <path
       style="display:inline;fill:#d3d3d3;stroke:#000000;stroke-width:2.88549"
       d="m 220.80052,-812.87768 h 1.78439 l 7.27895,-29.72405 -1.31463,-1.91654 4.1453,-16.92804 3.61379,-34.53533 h -3.80423 l -2.27262,-3.31312 -8.89193,-7.40072 h -65.80081 l -16.92285,69.10874 1.25808,7.40014 5.07847,7.40014 -1.00415,4.08701 27.17327,8.77479 h 48.95587 z"
       id="path4561" />
    <path
       style="display:inline;fill:#d3d3d3;stroke:#000000;stroke-width:2.88549"
       d="m 206.85782,-701.72383 1.05955,-11.17956 h 0.53843 l 3.19598,-33.73662 -0.51131,-0.28854 1.25692,-13.27155 -0.30817,-26.42535 h -10.29718 l -5.4807,-1.85941 h -58.75732 l 1.14266,-4.35768 1.05609,-33.7193 h -4.76107 l -2.41227,-2.75276 -9.74143,-6.92923 H 59.547574 l -16.106828,61.29713 -4.160882,-4.10952 4.183966,-13.78632 -1.206136,-33.7193 h -5.493981 l -2.787387,-2.75276 -10.491656,-6.92923 h -60.047132 l -21.427679,70.61323 3.531845,6.92923 7.01175,6.92865 -1.269617,4.17646 31.532679,7.39725 h 44.673219 l 1.206137,-3.97851 h 5.932575 l 6.440423,-21.23032 2.325709,6.70647 6.07685,6.92865 -1.096488,4.17646 29.403185,7.39725 h 47.085494 l 1.04455,-3.97851 h 0.40397 l -3.23176,34.1302 1.94483,3.24906 5.75944,3.24907 -0.43859,4.63872 h 73.43409 z"
       id="path1878" />
    <path
       style="display:inline;fill:#d3d3d3;stroke:#000000;stroke-width:2.88549"
       d="m 173.70522,-58.71629 -2.49826,-0.739841 -2.30378,-1.370609 -1.96386,-1.914814 -1.50046,-2.338982 -0.94298,-2.616566 -0.32664,-2.7291 0.31106,-2.670813 0.92855,-2.444014 1.48776,-2.064282 1.95348,-1.554127 4.71086,-2.247223 2.29685,-0.947019 2.49595,-0.279893 2.53751,0.404546 2.42035,1.063016 2.15027,1.655697 1.7463,2.143922 1.23153,2.497683 0.64,2.693898 0.007,2.721598 -0.62442,2.5779 -1.21768,2.272038 -1.73475,1.823632 -2.1422,1.260384 -4.71085,2.246646 -2.41516,0.61865 z"
       id="path2125" />
    <path
       style="display:inline;fill:#d3d3d3;stroke:#000000;stroke-width:2.88549"
       d="m 41.149664,-104.66028 -2.671967,-0.71503 -2.533464,-1.13053 -2.239144,-1.47507 -1.800548,-1.7261 -1.252304,-1.8698 -0.617496,-1.89519 0.04617,-1.80171 3.122105,-8.43776 0.709831,-1.5951 1.333098,-1.28808 1.8698,-0.90028 2.285312,-0.45648 2.568089,0.0173 2.677739,0.4888 2.6258,0.93028 2.400731,1.3129 2.037158,1.61357 1.540854,1.81209 0.940671,1.8975 0.28855,1.86346 -0.380885,1.71167 -3.122105,8.43776 -1.027236,1.45314 -1.615877,1.10283 -2.094868,0.68387 -2.446899,0.22102 z"
       id="path2117" />
    <path
       style="display:inline;fill:#d3d3d3;stroke:#000000;stroke-width:2.88549"
       d="m 94.721747,-181.88822 -2.614258,-0.95106 -2.319937,-1.43294 -1.875571,-1.82478 -1.327327,-2.10237 -0.680977,-2.24723 0.0058,-2.25126 1.875571,-6.70127 0.686748,-2.11391 1.327327,-1.84383 1.881342,-1.45718 2.319937,-0.97933 2.614258,-0.44033 2.741219,0.12638 2.700821,0.6856 2.48153,1.20152 2.11795,1.64184 1.61588,1.97945 1.00992,2.19182 0.34049,2.26742 -0.34626,2.1999 -1.88134,6.70128 -1.00993,1.99445 -1.62164,1.6632 -2.11796,1.22864 -2.48729,0.71503 -2.695055,0.15812 z"
       id="path2111" />
    <path
       style="display:inline;fill:#d3d3d3;stroke:#000000;stroke-width:2.88549"
       d="m 222.57106,-195.67683 -2.43478,-0.99319 -2.02734,-1.48314 -1.49238,-1.87961 -0.86392,-2.15835 -0.99145,-6.39253 -0.18121,-2.30147 0.51304,-2.29916 1.17497,-2.15316 1.76304,-1.8721 2.2403,-1.47276 2.57674,-0.98107 2.75219,-0.42763 2.75333,0.15236 2.58194,0.7231 2.24896,1.24769 1.77342,1.69494 1.18767,2.03485 0.52689,2.2478 0.99146,6.39252 -0.16736,2.31878 -0.85064,2.24377 -1.48084,2.0285 -2.01754,1.6857 -2.42785,1.23673 -2.68524,0.70983 -2.77469,0.1385 z"
       id="path2105" />
    <g
       id="g2374">
      <path
         style="display:inline;opacity:0.996;fill:#b87333;fill-opacity:1;stroke:#000000;stroke-width:2.88549"
         d="m -32.173555,-138.1028 -0.50784,-0.2603 -0.52516,-0.5973 -0.35203,-0.7058 -0.15005,-1.4952 -0.0923,-1.4272 1.37927,-1.9137 0.94644,-0.5696 2.25646,-0.61 2.09486,1.0342 0.50785,0.2608 0.53093,0.5968 0.34626,0.7063 0.15005,1.4953 0.0923,1.4266 -1.37927,1.9136 -0.94067,0.5696 -2.26223,0.6106 z"
         id="path2097-9" />
      <path
         style="display:inline;fill:#b87333;fill-opacity:1;stroke:#000000;stroke-width:2.88549"
         d="m 150.01012,-70.90808 -0.71906,-0.206024 -1.44448,-1.580096 -0.37627,-2.111605 0.28913,-0.665395 1.033,-2.269729 2.13642,-1.062439 2.42382,0.550552 0.71906,0.206024 1.44448,1.580674 0.37627,2.111027 -0.2897,0.665395 -1.03301,2.26973 -2.13642,1.062439 z"
         id="path2127" />
      <path
         style="display:inline;fill:#b87333;fill-opacity:1;stroke:#000000;stroke-width:2.88549"
         d="m 172.79341,-98.6094 -0.71907,-0.206024 -1.44448,-1.580676 -0.37627,-2.1116 0.28971,-0.6654 1.033,-2.26973 2.13585,-1.06244 2.42381,0.55056 0.71964,0.2066 1.44391,1.58009 0.37626,2.11161 -0.28912,0.66539 -1.03301,2.269734 -2.13642,1.062439 z"
         id="path2123" />
      <path
         style="display:inline;fill:#b87333;fill-opacity:1;stroke:#000000;stroke-width:2.88549"
         d="m 25.920026,-99.226318 -1.298472,-1.378112 -0.09811,-1.42659 -0.07502,-2.16643 1.454289,-1.55355 1.148427,-0.93086 1.950594,-0.0796 2.008304,0.80275 1.298472,1.37753 0.09234,1.42717 0.08079,2.16585 -1.454289,1.553549 -1.148427,0.93086 -1.950594,0.07964 z"
         id="path2119" />
      <path
         style="display:inline;fill:#b87333;fill-opacity:1;stroke:#000000;stroke-width:2.88549"
         d="m 10.222939,-125.96331 -1.298473,-1.37753 -0.09234,-1.42659 -0.08079,-2.16643 1.454289,-1.55355 1.148426,-0.93086 1.950594,-0.0796 2.008304,0.80217 1.298473,1.37811 0.09234,1.42659 0.08079,2.16643 -1.454289,1.55355 -1.148426,0.93086 -1.950594,0.0796 z"
         id="path2115" />
      <path
         style="display:inline;fill:#b87333;fill-opacity:1;stroke:#000000;stroke-width:2.88549"
         d="m 69.808391,-190.13958 -1.725525,-1.19748 -0.657893,-1.72841 -0.403969,-1.55701 0.81948,-1.97714 1.073404,-1.01974 1.725525,-0.8593 2.135266,0.20833 1.731297,1.19749 0.657892,1.72841 0.398198,1.55701 -0.813709,1.97714 -1.079175,1.01973 -1.725525,0.8593 z"
         id="path2113" />
      <path
         style="display:inline;fill:#b87333;fill-opacity:1;stroke:#000000;stroke-width:2.88549"
         d="m 90.583948,-215.11353 -1.725525,-1.1969 -0.657893,-1.72841 -0.403969,-1.55702 0.819481,-1.97714 1.073403,-1.01973 1.725526,-0.8593 2.135265,0.20833 1.725526,1.19748 0.657892,1.72841 0.40397,1.55701 -0.819481,1.97657 -1.073403,1.02031 -1.725526,0.8593 z"
         id="path2109" />
      <path
         style="display:inline;fill:#b87333;fill-opacity:1;stroke:#000000;stroke-width:2.88549"
         d="m 208.1234,-218.93392 -1.27193,-1.39138 -1.00069,-1.15766 -0.007,-2.22356 0.56556,-1.23557 1.26269,-1.51835 2.0487,-0.65847 2.05217,0.45302 1.27192,1.39197 1.00127,1.15708 0.007,2.22356 -0.56556,1.23615 -1.26269,1.51834 -2.04928,0.65847 z"
         id="path2103" />
      <path
         style="display:inline;fill:#b87333;fill-opacity:1;stroke:#000000;stroke-width:2.88549"
         d="m 247.35284,-223.07171 -1.27192,-1.39197 -1.00069,-1.15708 -0.007,-2.22356 0.56556,-1.23557 1.26269,-1.51892 2.04928,-0.65847 2.05216,0.4536 1.27193,1.39138 1.00069,1.15766 0.007,2.22299 -0.56556,1.23614 -1.26269,1.51835 -2.0487,0.65847 z"
         id="path2101" />
      <path
         style="display:inline;fill:#b87333;fill-opacity:1;stroke:#000000;stroke-width:2.88549"
         d="m -22.631297,-105.89815 -0.507847,-0.26027 -0.52516,-0.5973 -0.35203,-0.70579 -0.150046,-1.49526 -0.09233,-1.42717 1.379266,-1.91366 0.946442,-0.56959 2.256456,-0.61 2.094869,1.03416 0.507847,0.26085 0.530931,0.59672 0.346259,0.70637 0.150046,1.49527 0.09234,1.42658 -1.379267,1.91366 -0.940671,0.5696 -2.262227,0.61057 z"
         id="path2097" />
      <path
         style="display:inline;fill:#b87333;fill-opacity:1;stroke:#000000;stroke-width:2.88549"
         d="m -23.646991,-185.76574 -1.511999,-1.14034 -0.946442,-1.94079 -0.02308,-1.99965 0.917588,-1.29443 1.367724,-1.46929 1.858258,-0.11773 1.737067,0.0352 1.511999,1.14092 0.952213,1.94021 0.01731,1.99965 -0.911816,1.29443 -1.373495,1.46987 -1.852487,0.11715 z"
         id="path2093" />
      <path
         style="display:inline;fill:#b87333;fill-opacity:1;stroke:#000000;stroke-width:2.88549"
         d="m -16.923789,-218.65691 -1.51777,-1.14092 -0.946442,-1.94021 -0.01731,-1.99965 0.911816,-1.29443 1.367724,-1.46987 1.858258,-0.11715 1.737068,0.0352 1.517769,1.14035 0.946443,1.94078 0.02308,1.99965 -0.917587,1.29443 -1.367724,1.4693 -1.858258,0.11773 z"
         id="path2091" />
      <path
         style="display:inline;fill:#b87333;fill-opacity:1;stroke:#000000;stroke-width:2.88549"
         d="m 552.78874,-243.6072 -1.65685,-1.04916 -0.93606,-1.0382 -0.65616,-2.09776 0.58114,-1.43928 0.79755,-1.69725 1.82132,-1.04917 h 2.15027 l 1.65685,1.04917 0.93548,1.0382 0.65674,2.09833 -0.58114,1.43871 -0.79755,1.69725 -1.82132,1.04916 z"
         id="path2085" />
      <path
         style="display:inline;fill:#b87333;fill-opacity:1;stroke:#000000;stroke-width:2.88549"
         d="m 590.14261,-255.69511 -1.65685,-1.04917 -0.93605,-1.0382 -0.65674,-2.09833 0.58114,-1.4387 0.79755,-1.69725 1.8219,-1.04917 h 2.14969 l 1.65743,1.04917 0.93548,1.0382 0.65673,2.09775 -0.58113,1.43929 -0.79755,1.69724 -1.82191,1.04917 z"
         id="path2083" />
      <path
         style="display:inline;fill:#b87333;fill-opacity:1;stroke:#000000;stroke-width:2.88549"
         d="m 35.719164,-242.21812 -0.825251,-0.45014 -1.361953,-1.60433 -0.294321,-2.14162 0.877191,-1.86114 0.64635,-0.87315 2.123724,-1.07456 2.348792,0.56094 0.825251,0.45014 1.356183,1.60433 0.300091,2.14162 -0.87719,1.86114 -0.646351,0.87315 -2.123724,1.07514 z"
         id="path2077" />
      <path
         style="display:inline;fill:#b87333;fill-opacity:1;stroke:#000000;stroke-width:2.88549"
         d="m 58.901224,-270.28013 -0.825252,-0.45013 -1.356182,-1.60434 -0.300091,-2.14161 0.87719,-1.86115 0.646351,-0.87315 2.123723,-1.07513 2.348792,0.56151 0.825252,0.45014 1.361953,1.60434 0.29432,2.14161 -0.87719,1.86114 -0.646351,0.87315 -2.123723,1.07514 z"
         id="path2075" />
      <path
         style="display:inline;fill:#b87333;fill-opacity:1;stroke:#000000;stroke-width:2.88549"
         d="m 117.24014,-286.55893 -1.15997,-2.4065 0.46168,-2.63331 1.90443,-1.85421 2.61426,-0.36704 2.33148,1.26039 1.15997,2.4065 -0.46168,2.6333 -1.89866,1.85422 -2.62003,0.36703 z"
         id="path2069" />
      <path
         style="display:inline;fill:#b87333;fill-opacity:1;stroke:#000000;stroke-width:2.88549"
         d="m 151.07429,-306.10642 -1.15766,-2.40593 0.45937,-2.6333 1.90097,-1.85479 2.61656,-0.36704 2.33264,1.26038 1.15766,2.40651 -0.45938,2.6333 -1.90096,1.85422 -2.61656,0.36703 z"
         id="path2067" />
      <path
         style="display:inline;fill:#b87333;fill-opacity:1;stroke:#000000;stroke-width:2.88549"
         d="m 556.52718,-313.51233 -1.81613,-1.0786 -0.78947,-1.74515 -0.57421,-1.34868 0.66655,-2.15719 0.94067,-0.93663 1.66204,-1.0786 h 2.15027 l 1.81613,1.0786 0.78947,1.74514 0.57422,1.34868 -0.66713,2.1572 -0.94009,0.93663 -1.66262,1.0786 z"
         id="path2061" />
      <path
         style="display:inline;fill:#b87333;fill-opacity:1;stroke:#000000;stroke-width:2.88549"
         d="m 592.04357,-325.94073 -1.8167,-1.0786 -0.7889,-1.74457 -0.57479,-1.34926 0.66713,-2.15661 0.94067,-0.93721 1.66204,-1.0786 h 2.1497 l 1.81671,1.0786 0.78889,1.74514 0.57479,1.34868 -0.66713,2.1572 -0.94067,0.93663 -1.66204,1.0786 z"
         id="path2059" />
      <path
         style="display:inline;fill:#b87333;fill-opacity:1;stroke:#000000;stroke-width:2.88549"
         d="m 400.90037,-350.79695 -1.85768,-1.0786 -0.89566,-1.74515 -0.32375,-1.34868 0.50438,-2.15719 1.19113,-0.93721 1.55586,-1.07802 h 2.10988 l 1.8571,1.07802 0.89566,1.74514 0.32375,1.34926 -0.50439,2.15662 -1.19113,0.93721 -1.55586,1.0786 z"
         id="path2051" />
      <path
         style="display:inline;fill:#b87333;fill-opacity:1;stroke:#000000;stroke-width:2.88549"
         d="m 434.88399,-363.22535 -1.85769,-1.0786 -0.89565,-1.74515 -0.32375,-1.34868 0.50438,-2.15719 1.19113,-0.93664 1.55586,-1.07859 h 2.10987 l 1.85711,1.07859 0.89565,1.74457 0.32376,1.34926 -0.50439,2.1572 -1.19113,0.93663 -1.55586,1.0786 z"
         id="path2049" />
      <path
         style="display:inline;fill:#b87333;fill-opacity:1;stroke:#000000;stroke-width:2.88549"
         d="m 190.7129,-349.16896 -1.93559,-0.96722 -1.15824,-1.56451 0.0387,-1.65281 0.0768,-1.93386 1.53162,-1.28347 1.25866,-0.96722 h 1.97367 l 1.93617,0.96722 1.15766,1.56452 -0.0387,1.65281 -0.0762,1.93386 -1.5322,1.28346 -1.25807,0.96722 z"
         id="path2045" />
      <path
         style="display:inline;fill:#b87333;fill-opacity:1;stroke:#000000;stroke-width:2.88549"
         d="m 220.2367,-360.31216 -1.93559,-0.96722 -1.15824,-1.56451 0.0387,-1.65281 0.0767,-1.93386 1.53162,-1.28347 1.25865,-0.96722 h 1.97368 l 1.93617,0.96722 1.15766,1.56452 -0.0387,1.65281 -0.0762,1.93386 -1.5322,1.28346 -1.25808,0.96722 z"
         id="path2043" />
      <path
         style="display:inline;fill:#b87333;fill-opacity:1;stroke:#000000;stroke-width:2.88549"
         d="m -40.69449,-421.58101 -1.794777,-1.11553 -1.10803,-1.80517 0.01154,-1.80516 0.548244,-1.6482 1.385037,-1.37926 1.656274,-0.53266 h 1.800548 l 1.800549,1.11553 1.102258,1.80574 -0.01154,1.80459 -0.548244,1.64877 -1.385037,1.37869 -1.656273,0.53266 z"
         id="path2033" />
      <path
         style="display:inline;fill:#b87333;fill-opacity:1;stroke:#000000;stroke-width:2.88549"
         d="m 58.00672,-421.58101 -1.829403,-1.11553 -1.061862,-1.80517 0.109649,-1.80516 0.375114,-1.6482 1.535083,-1.37926 1.477373,-0.53266 h 1.898655 l 1.829404,1.11553 1.061861,1.80574 -0.115419,1.80459 -0.369344,1.64877 -1.535082,1.37869 -1.477373,0.53266 z"
         id="path2031" />
      <path
         style="display:inline;fill:#b87333;fill-opacity:1;stroke:#000000;stroke-width:2.88549"
         d="m -14.096005,-434.43704 -1.794778,-1.11553 -1.102258,-1.80517 0.0058,-1.80574 0.554015,-1.64819 1.379266,-1.37869 1.662044,-0.53266 h 1.800549 l 1.794777,1.11553 1.102259,1.80516 -0.0058,1.80517 -0.554015,1.64819 -1.379266,1.37927 -1.662045,0.53266 z"
         id="path2029" />
      <path
         style="display:inline;fill:#b87333;fill-opacity:1;stroke:#000000;stroke-width:2.88549"
         d="m 86.775096,-434.43704 -1.829403,-1.11553 -1.061862,-1.80517 0.11542,-1.80574 0.369343,-1.64819 1.535083,-1.37869 1.477373,-0.53266 h 1.898655 l 1.829403,1.11553 1.061862,1.80516 -0.109649,1.80517 -0.375114,1.64819 -1.535083,1.37927 -1.477373,0.53266 z"
         id="path2027" />
      <path
         style="display:inline;fill:#b87333;fill-opacity:1;stroke:#000000;stroke-width:2.88549"
         d="m 293.01405,-327.04761 -1.94309,-0.91066 -1.09245,-1.47275 -0.20198,-1.77689 0.21583,-1.82075 1.32329,-1.42947 1.37581,-0.91009 h 2.051 l 1.94252,0.91009 1.09245,1.47333 0.20256,1.77689 -0.21641,1.82074 -1.32271,1.4289 -1.37581,0.91066 z"
         id="path2021" />
      <path
         style="display:inline;fill:#b87333;fill-opacity:1;stroke:#000000;stroke-width:2.88549"
         d="m 324.47575,-337.53753 -1.94309,-0.91009 -1.09245,-1.47275 -0.20256,-1.77689 0.21641,-1.82075 1.32329,-1.42947 1.37522,-0.91009 h 2.05101 l 1.94309,0.91009 1.09245,1.47276 0.20256,1.77746 -0.21641,1.82017 -1.32328,1.42947 -1.37581,0.91009 z"
         id="path2019" />
      <path
         style="display:inline;fill:#b87333;fill-opacity:1;stroke:#000000;stroke-width:2.88549"
         d="m 269.53421,-438.56618 -1.83517,-1.1467 -0.91817,-1.85479 -0.0519,-1.10226 0.43225,-2.29281 1.83344,-1.41736 1.08264,-0.393 h 2.05101 l 1.83517,1.14669 0.91817,1.8548 0.0514,1.10168 -0.43167,2.29339 -1.83344,1.41735 -1.08264,0.39301 z"
         id="path2015" />
      <path
         style="display:inline;fill:#b87333;fill-opacity:1;stroke:#000000;stroke-width:2.88549"
         d="m 302.23725,-451.77828 -1.83518,-1.1467 -0.91816,-1.85479 -0.0519,-1.10168 0.43225,-2.2934 1.83344,-1.41735 1.08264,-0.393 h 2.05101 l 1.83459,1.14669 0.91874,1.8548 0.0514,1.10226 -0.43167,2.29281 -1.83345,1.41735 -1.08263,0.39301 z"
         id="path2013" />
      <path
         style="display:inline;fill:#b87333;fill-opacity:1;stroke:#000000;stroke-width:2.88549"
         d="m 549.51255,-441.9751 -2.17682,-1.55529 -0.86392,-2.51615 0.77793,-2.51615 2.12373,-1.55528 h 2.65754 l 2.17624,1.55528 0.86391,2.51615 -0.77793,2.51615 -2.12372,1.55529 z"
         id="path2009" />
      <path
         style="display:inline;fill:#b87333;fill-opacity:1;stroke:#000000;stroke-width:2.88549"
         d="m 585.6701,-456.47298 -2.17624,-1.55528 -0.8645,-2.51615 0.77851,-2.51615 2.12314,-1.55528 h 2.65754 l 2.17624,1.55528 0.8645,2.51615 -0.77851,2.51615 -2.12314,1.55528 z"
         id="path2007" />
      <path
         style="display:inline;fill:#b87333;fill-opacity:1;stroke:#000000;stroke-width:2.88549"
         d="m 391.20626,-485.46873 -2.16123,-1.55528 -0.88931,-2.51616 0.72195,-2.51615 2.05736,-1.55528 h 2.60733 l 2.16123,1.55528 0.88989,2.51615 -0.72195,2.51616 -2.05794,1.55528 z"
         id="path1999" />
      <path
         style="display:inline;fill:#b87333;fill-opacity:1;stroke:#000000;stroke-width:2.88549"
         d="m 426.44334,-499.96661 -2.16124,-1.55528 -0.88988,-2.51615 0.72195,-2.51615 2.05736,-1.55528 h 2.6079 l 2.16124,1.55528 0.88931,2.51615 -0.72195,2.51615 -2.05736,1.55528 z"
         id="path1997" />
      <path
         style="display:inline;fill:#b87333;fill-opacity:1;stroke:#000000;stroke-width:2.88549"
         d="m 158.56446,-457.36518 -1.79767,-1.17324 -0.93547,-1.89923 0.28508,-1.89923 0.27528,-1.4289 1.72553,-1.45082 1.31924,-0.25566 h 1.97426 l 1.79766,1.17382 0.93548,1.89923 -0.28509,1.89923 -0.27527,1.4289 -1.72553,1.45083 -1.31925,0.25507 z"
         id="path1993" />
      <path
         style="display:inline;fill:#b87333;fill-opacity:1;stroke:#000000;stroke-width:2.88549"
         d="m 189.67585,-470.89006 -1.79824,-1.17382 -0.9349,-1.89923 0.28451,-1.89924 0.27528,-1.42889 1.72553,-1.45083 1.31924,-0.25565 h 1.97426 l 1.79824,1.17381 0.9349,1.89924 -0.28451,1.89923 -0.27528,1.4289 -1.7261,1.45082 -1.31925,0.25566 z"
         id="path1991" />
      <path
         style="display:inline;fill:#b87333;fill-opacity:1;stroke:#000000;stroke-width:2.88549"
         d="m -62.035604,-550.14218 -1.246533,-0.35214 -1.57548,-1.25439 -0.744457,-2.02948 0.363572,-2.0296 0.790625,-0.90212 1.656274,-1.55049 h 2.227601 l 1.246534,0.35215 1.575479,1.25432 0.750229,2.02954 -0.369343,2.02948 -0.790626,0.9023 -1.656273,1.55043 z"
         id="path1983" />
      <path
         style="display:inline;fill:#b87333;fill-opacity:1;stroke:#000000;stroke-width:2.88549"
         d="m -32.880572,-564.59643 -1.252304,-0.35214 -1.57548,-1.25433 -0.744457,-2.02954 0.369343,-2.0296 0.784854,-0.90212 1.656274,-1.55043 h 2.227601 l 1.252305,0.35215 1.57548,1.25426 0.744457,2.0296 -0.369343,2.02954 -0.784855,0.90218 -1.656273,1.55043 z"
         id="path1981" />
      <path
         style="display:inline;fill:#b87333;fill-opacity:1;stroke:#000000;stroke-width:2.88549"
         d="m 39.48762,-550.14218 -1.044549,-0.35214 -1.638961,-1.25439 -0.750228,-2.02948 0.427053,-2.0296 0.577098,-0.90212 1.771694,-1.55049 h 2.348792 l 1.038778,0.35215 1.638961,1.25432 0.750228,2.02954 -0.421282,2.02948 -0.577099,0.9023 -1.777464,1.55043 z"
         id="path1975" />
      <path
         style="display:inline;fill:#b87333;fill-opacity:1;stroke:#000000;stroke-width:2.88549"
         d="m 70.466284,-564.59643 -1.044549,-0.35214 -1.63319,-1.25433 -0.755999,-2.02954 0.427053,-2.0296 0.577099,-0.90212 1.771693,-1.55043 h 2.348792 l 1.038778,0.35215 1.638961,1.25426 0.750228,2.0296 -0.421282,2.02954 -0.577099,0.90218 -1.771693,1.55043 z"
         id="path1973" />
      <path
         style="display:inline;fill:#b87333;fill-opacity:1;stroke:#000000;stroke-width:2.88549"
         d="m 259.25724,-567.28074 -2.11219,-1.56048 -0.19102,-0.17105 -0.71444,-2.04281 0.0225,-0.31112 0.68444,-2.52498 1.98926,-1.56053 h 2.5352 l 2.11218,1.56053 0.19159,0.17111 0.71388,2.04276 -0.0225,0.31111 -0.68386,2.52498 -1.98984,1.56048 z"
         id="path1967" />
      <path
         style="display:inline;fill:#b87333;fill-opacity:1;stroke:#000000;stroke-width:2.88549"
         d="m 293.41456,-581.829 -2.11218,-1.56047 -0.19102,-0.17111 -0.71445,-2.04276 0.0225,-0.31112 0.68386,-2.52498 1.98984,-1.56059 h 2.53519 l 2.11218,1.56059 0.19102,0.17111 0.71445,2.04276 -0.0225,0.31111 -0.68444,2.52499 -1.98925,1.56047 z"
         id="path1965" />
      <path
         style="display:inline;fill:#b87333;fill-opacity:1;stroke:#000000;stroke-width:2.88549"
         d="m 393.97172,-626.22309 -2.01811,-1.51834 -0.6579,-2.45683 1.02782,-2.64819 1.78035,-1.22841 0.34568,-0.0986 h 2.60733 l 2.01811,1.51835 0.65847,2.45688 -1.02839,2.64825 -1.78035,1.22841 -0.34568,0.0985 z"
         id="path1959" />
      <path
         style="display:inline;fill:#b87333;fill-opacity:1;stroke:#000000;stroke-width:2.88549"
         d="m 430.54189,-640.37863 -2.01811,-1.5184 -0.65847,-2.45671 1.02839,-2.64825 1.78035,-1.22841 0.34568,-0.0986 h 2.60733 l 2.01812,1.5184 0.65789,2.45683 -1.02781,2.64819 -1.78035,1.22841 -0.34568,0.0985 z"
         id="path1957" />
      <path
         style="display:inline;fill:#b87333;fill-opacity:1;stroke:#000000;stroke-width:2.88549"
         d="m 548.88005,-583.75664 -2.10295,-1.51834 -0.74561,-2.45683 0.89623,-2.45682 2.19702,-1.51841 h 2.65754 l 2.10294,1.51841 0.74562,2.45682 -0.89682,2.45683 -2.19643,1.51834 z"
         id="path1953" />
      <path
         style="display:inline;fill:#b87333;fill-opacity:1;stroke:#000000;stroke-width:2.88549"
         d="m 585.72088,-597.91218 -2.10353,-1.51834 -0.74561,-2.45676 0.89681,-2.45683 2.19644,-1.51839 h 2.65754 l 2.10353,1.51839 0.74561,2.45683 -0.89681,2.45676 -2.19702,1.51834 z"
         id="path1951" />
      <path
         style="display:inline;fill:#b87333;fill-opacity:1;stroke:#000000;stroke-width:2.88549"
         d="m 142.38434,-583.82381 -0.83102,-0.56913 -1.64474,-1.26749 -0.68097,-2.05089 0.54247,-2.05095 0.40974,-0.69829 1.92174,-1.56677 h 2.44113 l 0.83102,0.56914 1.64011,1.26754 0.68098,2.05095 -0.53901,2.05089 -0.41205,0.69829 -1.91827,1.56671 z"
         id="path1945" />
      <path
         style="display:inline;fill:#b87333;fill-opacity:1;stroke:#000000;stroke-width:2.88549"
         d="m 175.30494,-598.43001 -0.83275,-0.56925 -1.64127,-1.26748 -0.68098,-2.05088 0.53901,-2.05088 0.41205,-0.69839 1.92001,-1.56673 h 2.43997 l 0.83333,0.56921 1.64069,1.26751 0.68098,2.05087 -0.53901,2.05091 -0.41205,0.69835 -1.92001,1.56676 z"
         id="path1943" />
      <path
         style="display:inline;fill:#b87333;fill-opacity:1;stroke:#000000;stroke-width:2.88549"
         d="m -60.096552,-684.44722 -1.656273,-1.55066 -0.790626,-0.90143 -0.363572,-2.02966 0.744458,-2.02966 1.575479,-1.25461 1.252305,-0.35203 h 2.22183 l 1.656274,1.55009 0.790625,0.902 0.369343,2.02966 -0.750228,2.02966 -1.569709,1.25403 -1.252304,0.35261 z"
         id="path1935" />
      <path
         style="display:inline;fill:#b87333;fill-opacity:1;stroke:#000000;stroke-width:2.88549"
         d="m -28.240697,-698.90181 -1.656274,-1.55009 -0.790625,-0.90201 -0.369343,-2.02965 0.750228,-2.02966 1.569709,-1.25461 1.252304,-0.35203 h 2.227602 l 1.656273,1.55008 0.790626,0.90201 0.363572,2.02966 -0.744458,2.02965 -1.575479,1.25404 -1.252305,0.35261 z"
         id="path1933" />
      <path
         style="display:inline;fill:#b87333;fill-opacity:1;stroke:#000000;stroke-width:2.88549"
         d="m 41.166977,-684.44722 -1.777464,-1.55066 -0.577099,-0.90143 -0.421282,-2.02966 0.750228,-2.02966 1.638961,-1.25461 1.038778,-0.35203 h 2.348792 l 1.771693,1.55009 0.58287,0.902 0.421282,2.02966 -0.750228,2.02966 -1.638961,1.25403 -1.044549,0.35261 z"
         id="path1927" />
      <path
         style="display:inline;fill:#b87333;fill-opacity:1;stroke:#000000;stroke-width:2.88549"
         d="m 74.482892,-698.90181 -1.771694,-1.55009 -0.58287,-0.90201 -0.421282,-2.02965 0.750229,-2.02966 1.63896,-1.25461 1.044549,-0.35203 h 2.343021 l 1.777465,1.55008 0.577099,0.90201 0.421282,2.02966 -0.750229,2.02965 -1.63896,1.25404 -1.038778,0.35261 z"
         id="path1925" />
      <path
         style="display:inline;fill:#b87333;fill-opacity:1;stroke:#000000;stroke-width:2.88549"
         d="m 262.04347,-699.76169 -1.94944,-1.54028 -0.62038,-2.49191 -0.0115,-0.51246 0.76581,-2.01581 1.7411,-1.24596 0.60365,-0.25796 h 2.53519 l 1.95002,1.54028 0.6198,2.49191 0.0121,0.51246 -0.76638,2.01581 -1.74111,1.24596 -0.60365,0.25796 z"
         id="path1919" />
      <path
         style="display:inline;fill:#b87333;fill-opacity:1;stroke:#000000;stroke-width:2.88549"
         d="m 297.7151,-714.11991 -1.95002,-1.5397 -0.6198,-2.49191 -0.0121,-0.51247 0.76639,-2.01638 1.7411,-1.24596 0.60365,-0.25738 h 2.5352 l 1.94943,1.5397 0.62039,2.49249 0.0115,0.51188 -0.76581,2.01639 -1.74111,1.24595 -0.60364,0.25739 z"
         id="path1917" />
      <path
         style="display:inline;fill:#b87333;fill-opacity:1;stroke:#000000;stroke-width:2.88549"
         d="m 410.88245,-714.97921 -1.52932,-0.99434 -1.16343,-1.20672 -0.45129,-1.98868 0.36127,-1.58644 0.93836,-1.60895 1.88423,-0.99434 h 2.10929 l 1.52931,0.99434 1.16401,1.20671 0.45129,1.98868 -0.36184,1.58702 -0.93836,1.60838 -1.88365,0.99434 z"
         id="path1913" />
      <path
         style="display:inline;fill:#b87333;fill-opacity:1;stroke:#000000;stroke-width:2.88549"
         d="m 448.64433,-726.43693 -1.52931,-0.99434 -1.16343,-1.20729 -0.45129,-1.98868 0.36126,-1.58645 0.93894,-1.60895 1.88365,-0.99434 h 2.1093 l 1.52931,0.99434 1.16401,1.20729 0.45129,1.98811 -0.36184,1.58702 -0.93837,1.60895 -1.88365,0.99434 z"
         id="path1911" />
      <path
         style="display:inline;fill:#b87333;fill-opacity:1;stroke:#000000;stroke-width:2.88549"
         d="m 555.31354,-714.97921 -1.64819,-0.99434 -0.92682,-1.20672 -0.63943,-1.98868 0.59384,-1.58644 0.81082,-1.60895 1.82998,-0.99434 h 2.15027 l 1.6482,0.99434 0.92682,1.20671 0.63942,1.98868 -0.59383,1.58702 -0.81083,1.60838 -1.82998,0.99434 z"
         id="path1905" />
      <path
         style="display:inline;fill:#b87333;fill-opacity:1;stroke:#000000;stroke-width:2.88549"
         d="m 592.76495,-726.43693 -1.64877,-0.99434 -0.92625,-1.20729 -0.64,-1.98868 0.59384,-1.58645 0.81082,-1.60895 1.83056,-0.99434 h 2.14969 l 1.64877,0.99434 0.92624,1.20729 0.64001,1.98811 -0.59384,1.58702 -0.8114,1.60895 -1.82998,0.99434 z"
         id="path1903" />
      <path
         style="display:inline;fill:#b87333;fill-opacity:1;stroke:#000000;stroke-width:2.88549"
         d="m 142.02077,-716.69204 -1.82941,-1.53162 -0.36357,-1.04686 -0.42128,-2.00484 0.80217,-2.00542 1.71398,-1.2396 0.85411,-0.19276 h 2.44112 l 1.82998,1.53162 0.36127,1.04628 0.42013,2.00542 -0.80044,2.00542 -1.71283,1.23961 -0.85411,0.19275 z"
         id="path1897" />
      <path
         style="display:inline;fill:#b87333;fill-opacity:1;stroke:#000000;stroke-width:2.88549"
         d="m 176.79905,-730.9735 -1.82883,-1.5322 -0.36126,-1.04628 -0.42013,-2.00542 0.79986,-2.00542 1.71456,-1.23903 0.85526,-0.19333 h 2.43997 l 1.82941,1.5322 0.36068,1.04628 0.42013,2.00542 -0.79986,2.00484 -1.71456,1.23961 -0.85526,0.19333 z"
         id="path1895" />
      <path
         style="display:inline;fill:#b87333;fill-opacity:1;stroke:#000000;stroke-width:2.88549"
         d="m 61.653985,-771.07956 -1.477373,-0.53267 -1.535083,-1.37926 -0.375114,-1.64762 -0.109649,-1.80516 1.061862,-1.80575 1.823632,-1.11553 h 1.898655 l 1.477373,0.53209 1.535083,1.37926 0.375114,1.6482 0.109649,1.80516 -1.056091,1.80517 -1.829403,1.11611 z"
         id="path1891" />
      <path
         style="display:inline;fill:#b87333;fill-opacity:1;stroke:#000000;stroke-width:2.88549"
         d="m -37.808996,-771.07956 -1.656273,-0.53267 -1.385037,-1.37926 -0.548244,-1.64762 -0.01154,-1.80516 1.102259,-1.80575 1.800548,-1.11553 h 1.800548 l 1.656274,0.53209 1.385037,1.37926 0.548244,1.6482 0.01154,1.80516 -1.10803,1.80517 -1.794777,1.11611 z"
         id="path1889" />
      <path
         style="display:inline;fill:#b87333;fill-opacity:1;stroke:#000000;stroke-width:2.88549"
         d="m 97.180188,-783.93675 -1.477373,-0.53266 -1.535083,-1.37869 -0.375114,-1.64819 -0.109649,-1.80517 1.061862,-1.80574 1.829403,-1.11553 h 1.898655 l 1.477373,0.53208 1.535078,1.37927 0.36935,1.64819 0.11542,1.80517 -1.06186,1.80516 -1.829407,1.11611 z"
         id="path1887" />
      <path
         style="display:inline;fill:#b87333;fill-opacity:1;stroke:#000000;stroke-width:2.88549"
         d="m -3.402364,-783.93675 -1.662045,-0.53266 -1.379266,-1.37869 -0.554015,-1.64819 -0.0058,-1.80517 1.102259,-1.80574 1.794777,-1.11553 h 1.800548 l 1.662045,0.53208 1.379266,1.37927 0.554015,1.64819 0.0058,1.80517 -1.102259,1.80516 -1.794777,1.11611 z"
         id="path1885" />
      <path
         style="display:inline;fill:#b87333;fill-opacity:1;stroke:#000000;stroke-width:2.88549"
         d="m 279.14233,-783.91539 -1.06936,-0.6025 -1.79824,-1.35849 -0.37454,-2.19759 0.0825,-1.28174 0.96434,-1.77746 1.86402,-1.0988 h 2.05101 l 1.06994,0.6025 1.79824,1.35849 0.37396,2.19701 -0.0819,1.28231 -0.96491,1.77747 -1.86403,1.0988 z"
         id="path1876" />
      <path
         style="display:inline;fill:#b87333;fill-opacity:1;stroke:#000000;stroke-width:2.88549"
         d="m 316.22958,-796.57637 -1.06994,-0.60306 -1.79824,-1.35792 -0.37453,-2.19759 0.0825,-1.28174 0.96433,-1.77804 1.86403,-1.09879 h 2.05101 l 1.06994,0.60306 1.79767,1.35792 0.37453,2.19759 -0.082,1.28174 -0.9649,1.77804 -1.86403,1.09879 z"
         id="path1874" />
      <path
         style="display:inline;fill:#b87333;fill-opacity:1;stroke:#000000;stroke-width:2.88549"
         d="m 159.65171,-842.81121 -1.29328,-0.6302 -1.64357,-1.34925 -0.36011,-3.48914 1.04281,-1.7665 1.86403,-1.09245 h 1.97426 l 1.29328,0.63019 1.64357,1.34984 0.36011,3.48856 -1.04281,1.76707 -1.86403,1.09188 z"
         id="path1868" />
      <path
         style="display:inline;fill:#b87333;fill-opacity:1;stroke:#000000;stroke-width:2.88549"
         d="m 196.16014,-855.39428 -1.29328,-0.63019 -1.64358,-1.34983 -0.36011,-3.48856 1.04224,-1.76708 1.86461,-1.09187 h 1.97368 l 1.29385,0.63019 1.643,1.34983 0.36069,3.48857 -1.04282,1.76707 -1.86461,1.09187 z"
         id="path1866" />
    </g>
    <path
       style="display:inline;fill:#d3d3d3;stroke:#000000;stroke-width:2.88549"
       d="m -39.52875,-123.9925 -1.748609,-1.01454 -1.835175,-1.51893 -1.806319,-1.92751 -1.667815,-2.21548 -1.419664,-2.36437 -1.090716,-2.36438 -0.680977,-2.21548 -0.23661,-1.92751 0.225068,-1.51892 0.669435,-1.01512 8.662253,-5.9724 1.079175,-0.44667 1.413892,0.14947 1.662044,0.73638 1.80632,1.27712 1.361953,1.28866 c 0.954351,0.95435 4.036928,5.42253 4.714901,6.59681 l 0.334717,0.6302 0.888733,2.30781 0.46745,2.08852 0.0058,1.73707 -0.455908,1.27654 -0.877191,0.73696 -8.668024,5.9724 -1.252304,0.14946 z"
       id="path2095" />
    <path
       style="display:inline;fill:#d3d3d3;stroke:#000000;stroke-width:2.88549"
       d="m -35.535226,-209.18614 -2.025617,-1.02377 -1.910197,-1.60491 -1.662045,-2.08391 -1.321556,-2.43305 -0.894503,-2.62926 -0.40974,-2.65985 0.103878,-2.52307 0.605953,-2.22818 1.067633,-1.79305 1.465831,-1.24595 7.860086,-3.30389 1.777464,-0.61981 1.967907,0.045 2.037159,0.70753 1.98522,1.32444 1.794777,1.85941 1.506228,2.27666 1.113801,2.55135 0.657892,2.66504 0.155817,2.61195 -0.357801,2.39496 -0.842564,2.02677 -1.28116,1.53105 -1.633189,0.94009 -7.854315,3.30447 -1.887113,0.2897 z"
       id="path2089" />
    <path
       style="display:inline;fill:#d3d3d3;stroke:#000000;stroke-width:2.88549"
       d="m 567.85102,-261.01134 -2.5756,-0.70984 -2.23914,-1.23037 -1.76246,-1.67416 -1.17497,-2.01235 -0.51304,-2.22414 -1.08899,-6.52814 0.18006,-2.29685 0.86276,-2.22414 1.49064,-2.01234 2.02504,-1.67417 2.4319,-1.23037 2.68697,-0.70983 2.77238,-0.1437 2.68351,0.42994 2.42613,0.9776 2.01696,1.4641 1.48025,1.85768 0.85123,2.13527 1.0884,6.52872 0.16794,2.27781 -0.52516,2.27838 -1.18594,2.13527 -1.77227,1.85768 -2.24607,1.4641 -2.58021,0.97761 -2.75103,0.43051 z"
       id="path2081" />
    <path
       style="display:inline;fill:#d3d3d3;stroke:#000000;stroke-width:2.88549"
       d="m 33.560815,-267.51813 -2.325708,-1.08091 -2.04293,-1.68166 -1.63319,-2.17624 -1.119572,-2.53405 -0.536701,-2.73256 0.08657,-2.75968 0.698289,-2.61311 1.263846,-2.30262 1.754381,-1.8473 2.135266,-1.27538 2.377647,-0.62443 5.280454,-1.18247 2.475753,0.0664 2.418044,0.75311 2.198747,1.39254 1.858258,1.94425 1.385037,2.37418 0.831023,2.65408 0.230839,2.76776 -0.398198,2.70775 -0.986839,2.47749 -1.523541,2.0914 -1.956365,1.57375 -2.27954,0.95741 -5.274683,1.18247 -2.446899,0.28105 z"
       id="path2073" />
    <path
       style="display:inline;fill:#d3d3d3;stroke:#000000;stroke-width:2.88549"
       d="m 126.84307,-309.96548 -2.50461,-1.15535 -2.14104,-1.74919 -1.6505,-2.2328 -1.04455,-2.57616 -0.38088,-2.75854 0.30586,-2.76661 0.97529,-2.60098 1.58703,-2.27204 2.09487,-1.80055 2.47575,-1.21595 2.68928,-0.55459 1.80632,-0.12523 2.74699,0.14197 2.6258,0.82813 2.34302,1.4641 1.9102,2.00658 1.35618,2.42381 0.72137,2.6887 0.0404,2.78451 -0.65212,2.70486 -1.28693,2.45613 -1.85826,2.05274 -2.30263,1.52008 -2.60271,0.89219 -2.74122,0.20776 -1.80632,0.12523 z"
       id="path2065" />
    <path
       style="display:inline;fill:#d3d3d3;stroke:#000000;stroke-width:2.88549"
       d="m 568.24113,-329.00513 -2.68293,-0.73003 -2.42612,-1.265 -2.01696,-1.72091 -1.48084,-2.06889 -0.8518,-2.28705 -0.16851,-2.36091 1.119,-6.12013 0.52458,-2.28647 1.18478,-2.0689 1.77054,-1.72148 2.24549,-1.265 2.57848,-0.72946 2.75045,-0.14831 2.7493,0.44264 2.57502,1.0053 2.23914,1.5045 1.76246,1.91019 1.17555,2.19529 0.5142,2.34244 -0.1789,2.34245 -1.11958,6.11955 -0.8616,2.19529 -1.48892,1.91019 -2.02389,1.50508 -2.43131,1.0053 -2.68582,0.44264 z"
       id="path2057" />
    <path
       style="display:inline;fill:#d3d3d3;stroke:#000000;stroke-width:2.88549"
       d="m 421.58532,-329.29945 -2.59637,-1.0053 -2.30204,-1.50508 -1.8623,-1.91019 -1.3054,-2.19529 -0.6677,-2.34244 0.0133,-2.34245 0.69252,-2.19528 2.18605,-6.11956 1.32848,-1.91019 1.88134,-1.5045 2.31532,-1.0053 2.60445,-0.44264 2.72968,0.14831 2.68351,0.72946 2.46825,1.265 2.09891,1.72148 1.59625,2.0689 0.99434,2.28647 0.3301,2.36149 -0.35549,2.28704 -2.18605,6.11956 -1.01858,2.06889 -1.61761,1.72091 -2.11506,1.265 -2.4798,0.73003 -2.68812,0.14832 z"
       id="path2053" />
    <path
       style="display:inline;fill:#d3d3d3;stroke:#000000;stroke-width:2.88549"
       d="m 195.66037,-362.09539 -2.64484,-0.65386 -2.54213,-1.13457 -2.27954,-1.54317 -1.87326,-1.85479 -1.34983,-2.05043 -0.74157,-2.1168 -0.0866,-2.05043 0.57421,-1.85538 3.59591,-7.49882 1.19805,-1.54316 1.74746,-1.134 2.18663,-0.65443 2.48845,-0.13273 2.63388,0.39646 2.61425,0.90143 2.42959,1.34926 2.09314,1.71283 1.62453,1.96791 1.05378,2.10063 0.41724,2.10007 -0.24584,1.96848 -3.5959,7.49825 -0.89277,1.71283 -1.48488,1.34925 -1.98233,0.90143 -2.3563,0.39704 z"
       id="path2041" />
    <path
       style="display:inline;fill:#d3d3d3;stroke:#000000;stroke-width:2.88549"
       d="m 77.951255,-399.71993 -2.487295,-1.03993 -2.291083,-1.55701 -1.950594,-1.97541 -1.500457,-2.27089 -0.940671,-2.42323 -0.328946,-2.42324 0.300091,-2.27089 0.917587,-1.97598 4.859172,-5.54419 1.471602,-1.55701 1.939052,-1.03994 2.279541,-0.45764 2.475754,0.15351 2.521922,0.75485 2.406502,1.30828 2.141036,1.78035 1.737068,2.14046 1.22922,2.36553 0.646351,2.44228 0.01154,2.36553 -0.611725,2.14046 -1.206137,1.78035 -4.859172,5.54476 -1.719754,1.30829 -2.123724,0.75484 -2.39496,0.15351 z"
       id="path2037" />
    <path
       style="display:inline;fill:#d3d3d3;stroke:#000000;stroke-width:2.88549"
       d="m -21.211634,-399.71993 -2.412273,-1.03993 -2.262227,-1.55701 -1.962136,-1.97541 -1.540854,-2.27089 -1.027236,-2.42323 -0.444366,-2.42324 0.167359,-2.27089 0.76177,-1.97598 1.310015,-1.55644 5.615171,-5.54476 1.777464,-1.03994 2.141037,-0.45764 2.360334,0.15351 2.429586,0.75485 2.354563,1.30828 2.129495,1.78035 1.765922,2.14046 1.292702,2.36553 0.744457,2.44228 0.138504,2.36553 -0.46745,2.14046 -1.044549,1.78035 -5.609401,5.54476 -1.558166,1.30829 -1.979449,0.75484 -2.262228,0.15351 z"
       id="path2035" />
    <path
       style="display:inline;fill:#d3d3d3;stroke:#000000;stroke-width:2.88549"
       d="m 315.24044,-307.51397 -2.65235,-0.84891 -2.42901,-1.27019 -2.05332,-1.61184 -1.54893,-1.85306 -0.94644,-1.97714 -0.28566,-1.97657 0.39473,-1.85306 2.63561,-8.06207 1.04917,-1.61242 1.6378,-1.27019 2.12373,-0.84834 2.47575,-0.37338 2.67312,0.12523 2.7014,0.61577 2.56117,1.06763 2.25876,1.45256 1.81555,1.7463 1.2575,1.93039 0.62096,1.99272 -0.0548,1.92982 -2.63619,8.06207 -0.72772,1.7463 -1.35388,1.45314 -1.89577,1.06763 -2.31762,0.61577 -2.59522,0.12523 z"
       id="path2023" />
    <path
       style="display:inline;fill:#d3d3d3;stroke:#000000;stroke-width:2.88549"
       d="m 289.57801,-416.43502 -2.55193,-1.06879 -2.27897,-1.59971 -1.86229,-2.03081 -1.32964,-2.33379 -0.71272,-2.49018 -0.0508,-2.49019 0.61345,-2.33378 1.23961,-2.03024 3.32063,-4.9994 1.78785,-1.59972 2.22414,-1.06879 2.52019,-0.47033 2.65812,0.15754 2.62868,0.77562 2.43421,1.34522 2.08736,1.82941 1.60838,2.19932 1.02954,2.43132 0.38493,2.5098 -0.28336,2.43132 -0.93432,2.19932 -3.32005,4.99941 -1.52585,1.8294 -2.02216,1.34522 -2.39092,0.77504 -2.60964,0.15813 z"
       id="path2017" />
    <path
       style="display:inline;fill:#d3d3d3;stroke:#000000;stroke-width:2.88549"
       d="m 562.04078,-463.0571 -2.64542,-0.85122 -2.36091,-1.47564 -1.92809,-2.00773 -1.37407,-2.41343 -0.73349,-2.66793 -0.0467,-2.75449 0.64231,-2.66735 1.29154,-2.41343 1.30598,-1.70301 1.85941,-2.00773 2.3107,-1.47622 2.61657,-0.85064 2.75796,-0.17313 2.72621,0.51592 2.52308,1.17267 2.16123,1.75553 1.66435,2.22818 1.06187,2.56117 0.39358,2.73256 -0.30009,2.73256 -0.97472,2.56059 -1.58818,2.22818 -1.3054,1.70302 -2.10179,1.75553 -2.48326,1.17267 -2.70832,0.51592 z"
       id="path2005" />
    <path
       style="display:inline;fill:#d3d3d3;stroke:#000000;stroke-width:2.88549"
       d="m 409.50664,-463.40047 -2.49537,-1.17267 -2.1497,-1.75553 -1.66954,-2.22818 -1.08495,-2.56059 -0.43109,-2.73256 0.24931,-2.73257 0.91354,-2.56116 1.52124,-2.22818 2.03311,-1.75553 2.5502,-1.70302 2.41689,-1.17267 2.64889,-0.51592 2.71467,0.17313 2.60964,0.85064 2.34129,1.47622 1.92463,2.00773 1.3885,2.41342 0.7635,2.66793 0.0918,2.75392 -0.58576,2.66735 -1.22749,2.414 -1.79074,2.00773 -2.5502,1.70302 -2.2426,1.47564 -2.55309,0.85122 -2.70313,0.17255 z"
       id="path2001" />
    <path
       style="display:inline;fill:#d3d3d3;stroke:#000000;stroke-width:2.88549"
       d="m 165.49657,-475.28582 -2.55136,-0.79409 -2.38053,-1.37696 -2.05966,-1.87269 -1.60953,-2.25184 -1.05725,-2.48845 -0.44032,-2.56982 0.20544,-2.48845 0.83853,-2.25184 1.41793,-1.87268 4.3646,-4.44943 1.90904,-1.37696 2.27954,-0.79409 2.5075,-0.16101 2.5779,0.4813 2.48556,1.09418 2.23741,1.63781 1.84903,2.07871 1.34406,2.38861 0.75485,2.54962 0.1183,2.54905 -0.52631,2.38918 -1.13689,2.07871 -4.3646,4.44944 -1.67705,1.6378 -2.11102,1.09361 -2.41228,0.48187 z"
       id="path1989" />
    <path
       style="display:inline;fill:#d3d3d3;stroke:#000000;stroke-width:2.88549"
       d="m -47.942851,-527.98533 -2.210288,-1.16921 -1.950594,-1.75034 -1.569709,-2.22125 -1.090717,-2.55309 -0.542473,-2.72448 0.03463,-2.72391 0.611725,-2.55308 1.154198,-2.22183 1.627418,-1.75034 1.98522,-1.1692 6.30769,-1.9192 2.227602,-0.51455 2.331479,0.17244 2.285311,0.84851 2.094869,1.47166 1.771693,2.00138 1.33887,2.4065 0.825251,2.65927 0.259694,2.74584 -0.328946,2.65985 -0.888732,2.4065 -1.40235,2.00138 -1.817862,1.4716 -2.129494,0.84833 -6.30769,1.91944 -2.296853,0.17255 z"
       id="path1985" />
    <path
       style="display:inline;fill:#d3d3d3;stroke:#000000;stroke-width:2.88549"
       d="m 54.798051,-527.98533 -2.302624,-1.16921 -2.025617,-1.75034 -1.615877,-2.22125 -1.108029,-2.55309 -0.52516,-2.72448 0.08656,-2.72391 0.692519,-2.55308 1.258075,-2.22183 1.737068,-1.75034 2.117953,-1.1692 5.459354,-1.9192 2.360334,-0.51455 2.45267,0.17244 2.389189,0.84851 2.187205,1.47166 1.829403,2.00138 1.373495,2.4065 0.825252,2.65927 0.219297,2.74584 -0.392427,2.65985 -0.981068,2.4065 -1.511999,2.00138 -1.939052,1.4716 -2.256456,0.84833 -5.465126,1.91944 -2.423815,0.17255 z"
       id="path1977" />
    <path
       style="display:inline;fill:#d3d3d3;stroke:#000000;stroke-width:2.88549"
       d="m 276.37341,-545.34389 -2.43363,-1.1767 -2.10294,-1.76189 -1.63897,-2.23574 -1.07282,-2.5697 -0.4386,-2.74197 0.22276,-2.74197 0.87085,-2.56971 1.46294,-2.23596 1.96445,-1.76171 2.34128,-1.17682 3.65593,-1.41147 2.57213,-0.51789 2.6408,0.17359 2.54327,0.85405 2.28647,1.48089 1.88596,2.01477 1.36657,2.42191 0.76177,2.67693 0.10849,2.76378 -0.55113,2.67699 -1.17612,2.42197 -1.72726,2.01465 -2.16989,1.48084 -3.65592,1.41158 -2.47633,0.85411 -2.62696,0.17371 z"
       id="path1969" />
    <path
       style="display:inline;fill:#d3d3d3;stroke:#000000;stroke-width:2.88549"
       d="m 412.88383,-604.9407 -2.38689,-1.14503 -1.98868,-1.71405 -2.4896,-2.99698 -1.46526,-2.17568 -0.84891,-2.50028 -0.18005,-2.66792 0.50092,-2.66799 1.149,-2.50034 1.7261,-2.17555 2.19471,-1.71415 2.52481,-1.14502 2.6962,-0.50387 2.6991,0.1688 2.53115,0.83103 2.20567,1.4409 1.73996,1.96034 2.49018,2.99705 1.16574,2.35653 0.51881,2.60467 -0.16159,2.68923 -0.8316,2.60467 -1.44909,2.35653 -1.97599,1.96018 -2.37822,1.44099 -2.631,0.831 -2.71929,0.16881 z"
       id="path1961" />
    <path
       style="display:inline;fill:#d3d3d3;stroke:#000000;stroke-width:2.88549"
       d="m 563.75419,-604.60564 -2.6056,-0.831 -2.29108,-1.44099 -1.83345,-1.96018 -1.26038,-2.35653 -1.27481,-2.99704 -0.60826,-2.60468 0.0831,-2.68922 0.76812,-2.60468 1.40523,-2.35653 1.95406,-1.96034 2.37996,-1.4409 2.65638,-0.83103 2.76604,-0.1688 2.70197,0.50387 2.46825,1.14502 2.07871,1.71415 1.55933,2.17555 1.27481,2.99699 0.94124,2.5004 0.26489,2.66793 -0.42878,2.66798 -1.09533,2.50032 -1.69321,2.17557 -2.18432,1.71405 -2.53808,1.14503 -2.73314,0.50387 z"
       id="path1949" />
    <path
       style="display:inline;fill:#d3d3d3;stroke:#000000;stroke-width:2.88549"
       d="m 150.99927,-605.58423 -2.44517,-0.85743 -2.19644,-1.48677 -1.8092,-2.0227 -1.31002,-2.43156 -0.72137,-2.68762 -0.0981,-2.7748 0.54248,-2.68761 1.13688,-2.43166 1.66897,-2.02268 2.09314,-1.48689 2.38573,-0.8574 4.71374,-0.97183 2.52885,-0.17417 2.51326,0.51991 2.33956,1.18144 2.01811,1.76875 1.57087,2.24485 1.02435,2.57998 0.41378,2.75293 -0.22334,2.75288 -0.84545,2.57994 -1.41562,2.24487 -1.89577,1.76874 -2.25761,1.18139 -2.47691,0.51989 -4.71317,0.97181 z"
       id="path1941" />
    <path
       style="display:inline;fill:#d3d3d3;stroke:#000000;stroke-width:2.88549"
       d="m -43.591526,-663.05792 -6.30769,-1.91799 -1.98522,-1.1692 -1.621647,-1.75034 -1.154198,-2.22125 -0.617496,-2.55309 -0.03463,-2.72448 0.542473,-2.72448 1.090717,-2.55309 1.569709,-2.22125 1.950594,-1.75034 2.210288,-1.16921 2.319938,-0.51477 2.296853,0.17255 6.30769,1.9177 2.129495,0.84834 1.817861,1.4716 1.40235,2.00196 0.888732,2.40592 0.328946,2.65985 -0.253923,2.74584 -0.825251,2.65984 -1.344641,2.40651 -1.771693,2.00138 -2.094869,1.47154 -2.285311,0.84862 -2.325708,0.17244 z"
       id="path1937" />
    <path
       style="display:inline;fill:#d3d3d3;stroke:#000000;stroke-width:2.88549"
       d="m 58.572277,-663.05792 -5.465125,-1.91799 -2.112182,-1.1692 -1.742839,-1.75034 -1.258075,-2.22125 -0.692519,-2.55309 -0.08656,-2.72448 0.530931,-2.72448 1.102258,-2.55309 1.615877,-2.22125 2.025617,-1.75034 2.302624,-1.16921 2.441128,-0.51477 2.423815,0.17255 5.465126,1.9177 2.256456,0.84834 1.939052,1.4716 1.511999,2.00196 0.981068,2.40592 0.392427,2.65985 -0.219297,2.74584 -0.825252,2.65984 -1.367724,2.40651 -1.835174,2.00138 -2.181434,1.47154 -2.39496,0.84862 -2.45267,0.17244 z"
       id="path1929" />
    <path
       style="display:inline;fill:#d3d3d3;stroke:#000000;stroke-width:2.88549"
       d="m 280.62143,-678.38941 -2.31185,-1.1617 -3.60803,-2.32398 -1.91943,-1.7388 -1.40639,-2.20683 -0.80505,-2.53577 -0.15351,-2.70601 0.50843,-2.7066 1.13804,-2.53577 1.69609,-2.20683 2.14738,-1.73879 2.46422,-1.16113 2.62579,-0.51131 2.62234,0.1714 2.45498,0.84314 3.60802,2.32398 2.13238,1.46179 1.6759,1.98811 1.11437,2.39034 0.48304,2.64196 -0.1789,2.72737 -0.8293,2.64196 -1.42831,2.39034 -1.93733,1.98868 -2.32397,1.46122 -2.56521,0.84314 -2.64484,0.17082 z"
       id="path1921" />
    <path
       style="display:inline;fill:#d3d3d3;stroke:#000000;stroke-width:2.88549"
       d="m 427.38459,-731.39536 -2.46133,-0.6729 -2.0839,-1.16632 -1.57548,-1.58702 -0.9678,-1.90731 -2.01523,-7.19815 -0.29951,-2.10872 0.38839,-2.17682 1.05032,-2.10814 1.64761,-1.90731 2.14104,-1.58702 2.49941,-1.16632 2.7014,-0.6729 2.73372,-0.13619 2.59348,0.40743 2.29109,0.92682 1.84383,1.38792 1.28173,1.76073 0.63827,2.02389 2.01523,7.19873 -0.0444,2.1595 -0.72542,2.1595 -1.35964,2.02389 -1.90904,1.76073 -2.33899,1.38792 -2.62118,0.92682 -2.73891,0.40743 z"
       id="path1909" />
    <path
       style="display:inline;fill:#d3d3d3;stroke:#000000;stroke-width:2.88549"
       d="m 570.51548,-731.39536 -2.56982,-0.6729 -2.22933,-1.16632 -1.74861,-1.58702 -1.15882,-1.90731 -0.49573,-2.10814 -1.03185,-7.19873 0.19852,-2.17682 0.88066,-2.10814 1.5068,-1.90731 2.03832,-1.58702 2.44228,-1.16632 2.69274,-0.6729 2.77354,-0.13619 2.68004,0.40743 2.41863,0.92682 2.00484,1.38792 1.46525,1.76073 0.83333,2.02389 1.03243,7.19873 0.14947,2.1595 -0.54363,2.1595 -1.20325,2.02389 -1.7867,1.76073 -2.25818,1.38792 -2.58772,0.92682 -2.75449,0.40743 z"
       id="path1901" />
    <path
       style="display:inline;fill:#d3d3d3;stroke:#000000;stroke-width:2.88549"
       d="m 158.17261,-737.85425 -2.33668,-0.83853 -4.60871,-2.59925 -2.00715,-1.45371 -1.55124,-1.97772 -0.99838,-2.37765 -0.38262,-2.62811 0.25681,-2.71294 0.88066,-2.6281 1.44909,-2.37765 1.92578,-1.97772 2.28243,-1.45371 2.49537,-0.83853 2.55135,-0.17024 2.4469,0.50842 2.18894,1.15536 4.60871,2.59925 1.79305,1.72899 1.2852,2.19528 0.69598,2.5225 0.0635,2.69159 -0.57364,2.69216 -1.17382,2.5225 -1.70071,2.19529 -2.12141,1.72899 -2.40766,1.15535 -2.54327,0.50842 z"
       id="path1893" />
    <path
       style="display:inline;fill:#d3d3d3;stroke:#000000;stroke-width:2.88549"
       d="m 79.03043,-789.70254 -2.123723,-0.75485 -1.719755,-1.30886 -4.859172,-5.54303 -1.206136,-1.78035 -0.611725,-2.14046 0.01154,-2.36611 0.646351,-2.44228 1.22922,-2.3661 1.737067,-2.13989 2.141037,-1.78092 2.406502,-1.30886 2.521922,-0.75427 2.475754,-0.15351 2.27954,0.45764 1.939052,1.03993 1.471602,1.55702 4.859172,5.54303 0.917587,1.97599 0.305863,2.27088 -0.334718,2.42324 -0.940671,2.42324 -1.494686,2.27146 -1.956365,1.97598 -2.291082,1.55702 -2.487296,1.03993 -2.516151,0.45764 z"
       id="path1882" />
    <path
       style="display:inline;fill:#d3d3d3;stroke:#000000;stroke-width:2.88549"
       d="m -20.207482,-789.70254 -1.973678,-0.75485 -1.563937,-1.30886 -5.609401,-5.54303 -1.044549,-1.78035 -0.46745,-2.14046 0.138504,-2.36611 0.744457,-2.44228 1.292702,-2.3661 1.765922,-2.13989 2.129495,-1.78092 2.354563,-1.30886 2.429586,-0.75427 2.360334,-0.15351 2.141037,0.45764 1.777464,1.03993 5.615171,5.54304 1.310015,1.55701 0.76177,1.97599 0.167359,2.27088 -0.444366,2.42324 -1.027236,2.42324 -1.540854,2.27146 -1.962136,1.97598 -2.262227,1.55702 -2.412273,1.03993 -2.412273,0.45764 z"
       id="path1880" />
    <path
       style="display:inline;fill:#d3d3d3;stroke:#000000;stroke-width:2.88549"
       d="m 295.83549,-802.22559 -2.3713,-0.7433 -1.9881,-1.28866 -1.48026,-1.7538 -3.18213,-5.81601 -0.87892,-2.10756 -0.22218,-2.32975 0.44783,-2.40535 1.09014,-2.32974 1.66377,-2.10757 2.13296,-1.7538 2.46825,-1.28866 2.64831,-0.74331 2.66216,-0.1512 2.50807,0.45072 2.19759,1.02435 1.74745,1.53335 1.18883,1.94598 3.18212,5.816 0.55517,2.23626 -0.11369,2.3863 -0.77504,2.3863 -1.38792,2.23626 -1.91366,1.94598 -2.31879,1.53335 -2.57848,1.02435 -2.67658,0.45014 z"
       id="path1872" />
    <path
       style="display:inline;fill:#d3d3d3;stroke:#000000;stroke-width:2.88549"
       d="m 177.00276,-860.99733 -2.2351,-0.73869 -1.83056,-1.28115 -1.31232,-1.74227 -4.06047,-5.92045 -0.71098,-2.09487 -0.0646,-2.31532 0.58518,-2.39035 1.19921,-2.31532 1.73649,-2.09486 2.16528,-1.74284 2.45844,-1.28059 2.59694,-0.73868 2.57156,-0.15005 2.38572,0.44783 2.0487,1.018 1.58414,1.52354 4.06047,5.91988 1.01973,1.93444 0.3907,2.22241 -0.26258,2.37187 -0.89912,2.3713 -1.47911,2.22241 -1.96675,1.93443 -2.33033,1.52355 -2.54731,1.018 -2.60502,0.44783 z"
       id="path1864" />
  </g>
</svg>
